<?xml version="1.0"?>
<svg xmlns="http://www.w3.org/2000/svg" height="512px" viewBox="0 -15 512 511" width="512px"><g><path d="m485.847656 158.660156h-16.644531c-3.964844-1.910156-7.917969-3.742187-11.839844-5.46875 6.304688-9.125 11.308594-19.605468 15.171875-31.742187.527344-1.664063.617188-3.429688.257813-5.136719l-1.6875-8.023438 8.585937 2.96875c3.992188 1.378907 8.414063.125 11.09375-3.136718 19.1875-23.386719 22.882813-80.460938.875-102.71875-1.375-1.390625-3.125-2.351563-5.039062-2.765625-33.46875-7.238281-63.261719 5.5625-78.042969 13.839843-3.511719 1.964844-5.515625 5.832032-5.101563 9.835938l.933594 9.039062-8.316406-3.664062c-3.667969-1.613281-7.941406-.90625-10.886719 1.800781-20.683593 18.996094-35.980469 45.371094-43.078125 74.261719-1.878906 7.644531-3.167968 15.355469-3.886718 23.085938-27.132813 2.777343-54.175782 11.464843-82.25 26.4375-33.445313-17.832032-65.582032-26.808594-98.070313-27.410157-35.890625-.640625-73.605469 8.765625-115.175781 28.796875h-16.625c-14.402344 0-26.121094 11.730469-26.121094 26.152344v267.191406c0 16.265625 13.242188 29.496094 29.523438 29.496094h452.953124c16.28125 0 29.523438-13.230469 29.523438-29.496094v-267.191406c0-14.421875-11.730469-26.152344-26.152344-26.152344zm-91.667968-105.78125 17.984374 7.917969c3.285157 1.449219 7.097657 1.039063 10-1.078125 2.902344-2.113281 4.464844-5.613281 4.09375-9.1875l-2.015624-19.492188c18.195312-8.832031 37.730468-12.164062 54.882812-9.308593 10.082031 13.925781 9.652344 49.105469-.230469 67.914062l-18.03125-6.234375c-3.433593-1.183594-7.238281-.433594-9.964843 1.96875-2.726563 2.402344-3.945313 6.085938-3.199219 9.640625l4.796875 22.792969c-12.554688 36.90625-36.324219 51.738281-81.6875 65.089844 11.425781-32.332032 28.765625-61.371094 47.144531-76.257813 4.332031-3.503906 4.996094-9.855469 1.492187-14.183593-3.507812-4.328126-9.855468-4.996094-14.183593-1.488282-17.761719 14.382813-34.3125 39.171875-46.671875 67.828125-3.75-38.894531 9.105468-78.695312 35.589844-105.921875zm-148.277344 121.871094v248.464844h-190.765625v-248.121094c70.808593-33.21875 128.507812-33.320312 190.765625-.34375zm-225.734375 277.253906v-267.191406c0-3.246094 2.726562-5.984375 5.953125-5.984375h8.847656v254.472656c0 5.570313 4.511719 10.082031 10.082031 10.082031h200.851563v17.949219h-216.378906c-5.15625 0-9.355469-4.183593-9.355469-9.328125zm471.664062 0c0 5.144532-4.199219 9.328125-9.355469 9.328125h-216.40625v-17.949219h60.671876c5.570312 0 10.082031-4.511718 10.082031-10.082031 0-5.570312-4.511719-10.085937-10.082031-10.085937h-60.671876v-248.476563c24.605469-13.039062 48.183594-20.800781 71.644532-23.570312.570312 14.898437 3.261718 29.695312 8.101562 44.011719-3.074218 11.15625-5.449218 22.476562-6.953125 33.644531h-25.210937c-5.085938 0-9.207032 4.515625-9.207032 10.085937 0 5.566406 4.121094 10.082032 9.207032 10.082032h34.199218.011719.007813s3.632812-.351563 4.261718-.960938c3.128907-1.472656 5.417969-4.503906 5.757813-8.195312 1.03125-11.144532 3.089844-22.632813 5.972656-34.027344 27.738281-7.453125 48.691407-14.609375 66.121094-26.070313 4.90625-3.226562 9.394531-6.738281 13.519531-10.550781 4.394532 1.839844 8.84375 3.808594 13.332032 5.910156v248.121094h-39.304688c-5.570312 0-10.085938 4.515625-10.085938 10.085938 0 5.566406 4.515626 10.082031 10.085938 10.082031h49.390625c5.566406 0 10.082031-4.515625 10.082031-10.082031v-254.476563h8.84375c3.300782 0 5.980469 2.683594 5.980469 5.984375v267.191406zm0 0" data-original="#000000" class="active-path" data-old_color="#000000" fill="#194C80"/><path d="m91.636719 251.738281h24.992187c3.9375 0 7.511719-2.289062 9.160156-5.863281l3.09375-6.710938 3.015626 6.65625c1.632812 3.601563 5.226562 5.917969 9.183593 5.917969h71.125c5.570313 0 10.082031-4.511719 10.082031-10.082031s-4.511718-10.085938-10.082031-10.085938h-64.621093l-9.445313-20.828124c-1.628906-3.59375-5.207031-5.910157-9.152344-5.921876-.011719 0-.023437 0-.03125 0-3.9375 0-7.511719 2.289063-9.160156 5.867188l-9.625 20.882812h-18.535156c-5.570313 0-10.085938 4.515626-10.085938 10.085938s4.515625 10.082031 10.085938 10.082031zm0 0" data-original="#000000" class="active-path" data-old_color="#000000" fill="#194C80"/><path d="m89.851562 317.226562h25.019532c2.742187 0 5.367187-1.117187 7.269531-3.09375l4.988281-5.183593 4.835938 5.117187c1.90625 2.015625 4.558594 3.160156 7.332031 3.160156h71.125c5.566406 0 10.082031-4.515624 10.082031-10.082031 0-5.570312-4.515625-10.085937-10.082031-10.085937h-66.777344l-9.117187-9.648438c-1.894532-2.003906-4.527344-3.144531-7.285156-3.160156-.015626 0-.03125 0-.046876 0-2.742187 0-5.363281 1.117188-7.265624 3.09375l-9.351563 9.714844h-20.726563c-5.570312 0-10.085937 4.515625-10.085937 10.085937 0 5.566407 4.515625 10.082031 10.085937 10.082031zm0 0" data-original="#000000" class="active-path" data-old_color="#000000" fill="#194C80"/><path d="m89.851562 377.160156h25.019532c2.742187 0 5.367187-1.117187 7.269531-3.089844l4.988281-5.1875 4.835938 5.117188c1.90625 2.019531 4.558594 3.160156 7.332031 3.160156h71.125c5.566406 0 10.082031-4.511718 10.082031-10.082031s-4.515625-10.085937-10.082031-10.085937h-66.777344l-9.117187-9.648438c-1.894532-2.003906-4.527344-3.144531-7.285156-3.15625-.015626 0-.03125 0-.046876 0-2.742187 0-5.363281 1.113281-7.265624 3.089844l-9.351563 9.714844h-20.726563c-5.570312 0-10.085937 4.515624-10.085937 10.085937s4.515625 10.082031 10.085937 10.082031zm0 0" data-original="#000000" class="active-path" data-old_color="#000000" fill="#194C80"/><path d="m433.765625 319.550781c5.570313 0 10.085937-4.515625 10.085937-10.085937 0-5.566406-4.515624-10.082032-10.085937-10.082032h-20.726563l-9.351562-9.714843c-1.902344-1.976563-4.527344-3.09375-7.265625-3.09375-.015625 0-.027344 0-.042969 0-2.757812.011719-5.386718 1.148437-7.28125 3.152343l-9.144531 9.65625h-66.785156c-5.570313 0-10.082031 4.515626-10.082031 10.082032 0 5.570312 4.511718 10.085937 10.082031 10.085937h71.125c2.769531 0 5.417969-1.140625 7.324219-3.152343l4.863281-5.132813 5 5.195313c1.902343 1.972656 4.523437 3.089843 7.265625 3.089843zm0 0" data-original="#000000" class="active-path" data-old_color="#000000" fill="#194C80"/><path d="m372.503906 423.214844h-.167968c-5.570313 0-10.085938 4.515625-10.085938 10.085937 0 5.570313 4.515625 10.082031 10.085938 10.082031h.167968c5.570313 0 10.085938-4.511718 10.085938-10.082031 0-5.570312-4.515625-10.085937-10.085938-10.085937zm0 0" data-original="#000000" class="active-path" data-old_color="#000000" fill="#194C80"/></g> </svg>
