<?xml version="1.0"?>
<svg xmlns="http://www.w3.org/2000/svg" viewBox="0 0 512 512" width="512px" height="512px"><g><g id="Out_line" data-name="Out line"><circle cx="208" cy="472" r="8" data-original="#000000" class="active-path" data-old_color="#000000" fill="#E16767"/><path d="M481.04492,173.73047A103.9994,103.9994,0,0,0,338.26978,30.95532l-4.61255-4.61255a8.003,8.003,0,0,0-11.31446,0l-24,24a8.00122,8.00122,0,0,0,0,11.31446l4.61231,4.6123A103.36292,103.36292,0,0,0,288,120a104.7592,104.7592,0,0,0,1.73535,18.9502l-22.05713,22.05712-22.20849,7.40284a8.0032,8.0032,0,0,0-3.51563,2.35058l-35.86694,41.385-5.15064-5.15063a7.919,7.919,0,0,0-5.95312-2.33692,8.00146,8.00146,0,0,0-5.76367,2.77051L83.083,330.5459a8.00063,8.00063,0,0,0,.40234,10.88086l5.6565,5.65674L33.9541,410.76074a8.00105,8.00105,0,0,0,.38867,10.89649L36.68555,424,18.34277,442.34277a8.00122,8.00122,0,0,0,0,11.31446l32,32a8.00181,8.00181,0,0,0,11.31446,0L80,467.31445l2.34277,2.34278a8.00193,8.00193,0,0,0,10.67969.57031l66.02026-53.24268,5.66822,5.66846a8.0018,8.0018,0,0,0,10.65527.58984L176,422.73633v13.5249A47.88548,47.88548,0,0,0,160,472v24h16V472a32,32,0,0,1,64,0v24h16V472a47.88347,47.88347,0,0,0-15.62842-35.40723,187.5858,187.5858,0,0,1,28.07764-87.81738l34.28027-27.4248a8.0023,8.0023,0,0,0,.65918-11.9043l-4.90942-4.90918,42.54321-34.30957a8.01117,8.01117,0,0,0,2.56738-3.69727l7.40284-22.20849,22.05712-22.05713A104.7592,104.7592,0,0,0,392,224a103.36292,103.36292,0,0,0,53.73047-14.95508l4.6123,4.61231a8.00181,8.00181,0,0,0,11.31446,0l24-24a8.00122,8.00122,0,0,0,0-11.31446ZM392,32a88.02407,88.02407,0,0,1,77.33545,130.021L349.97852,42.66406A87.49217,87.49217,0,0,1,392,32ZM56,468.68652,35.31348,448,48,435.31445,68.68555,456Zm32.57324-15.42675L50.92383,415.61035l49.56055-57.18408L147.66357,405.606Zm128.041-83.50684,9.99609,12.49414,11.87061-9.49658a203.71816,203.71816,0,0,0-13.39746,54.40234A47.87351,47.87351,0,0,0,192,426.752v-16.8164l14.61035-11.68848-9.99609-12.49414-25.65235,20.52344-70.90918-70.91016,95.66114-110.96582,90.041,90.04Zm70.48584-76.59522-69.67017-69.66943,35.17945-40.5918,17.22973-5.74292,65.00757,65.00757-5.69434,17.084ZM344,228.68652,283.31348,168l15.11914-15.11914,60.68652,60.68652ZM392,208a88.67047,88.67047,0,0,1-17.57788-1.75757l-68.66455-68.66455A88.67047,88.67047,0,0,1,304,120a87.50053,87.50053,0,0,1,10.66455-42.021L434.021,197.33545A87.50053,87.50053,0,0,1,392,208Zm64-11.31348L315.31348,56,328,43.31348,468.68652,184Z" data-original="#000000" class="active-path" data-old_color="#000000" fill="#E16767"/></g></g> </svg>
