<?xml version="1.0"?>
<svg xmlns="http://www.w3.org/2000/svg" xmlns:xlink="http://www.w3.org/1999/xlink" version="1.1" id="Capa_1" x="0px" y="0px" viewBox="0 0 480.009 480.009" style="enable-background:new 0 0 480.009 480.009;" xml:space="preserve" width="512px" height="512px"><g><g>
	<g>
		<g>
			<path d="M200,24.005h-48c-4.418,0-8,3.582-8,8s3.582,8,8,8h48c4.418,0,8-3.582,8-8S204.418,24.005,200,24.005z" data-original="#000000" class="active-path" data-old_color="#000000" fill="#E91414"/>
			<path d="M120,24.005h-16c-4.418,0-8,3.582-8,8s3.582,8,8,8h16c4.418,0,8-3.582,8-8S124.418,24.005,120,24.005z" data-original="#000000" class="active-path" data-old_color="#000000" fill="#E91414"/>
			<path d="M128,456.005h48c4.418,0,8-3.582,8-8s-3.582-8-8-8h-48c-4.418,0-8,3.582-8,8S123.582,456.005,128,456.005z" data-original="#000000" class="active-path" data-old_color="#000000" fill="#E91414"/>
			<path d="M40,144.005c4.418,0,8-3.582,8-8v-40h40c4.418,0,8-3.582,8-8s-3.582-8-8-8H40c-4.418,0-8,3.582-8,8v48     C32,140.423,35.582,144.005,40,144.005z" data-original="#000000" class="active-path" data-old_color="#000000" fill="#E91414"/>
			<path d="M478.16,154.893c-1.521-1.831-3.779-2.89-6.16-2.888H304v-112c-0.026-22.08-17.92-39.974-40-40H40     c-22.08,0.026-39.974,17.92-40,40v400c0.026,22.08,17.92,39.974,40,40h224c22.08-0.026,39.974-17.92,40-40v-73.136     c11.195-2.927,19.937-11.669,22.864-22.864h50.272c4.418,17.112,21.872,27.402,38.984,22.984     c17.112-4.418,27.402-21.872,22.984-38.984c-4.418-17.112-21.872-27.402-38.984-22.984c-11.272,2.91-20.074,11.712-22.984,22.984     h-50.272c-2.927-11.195-11.669-19.937-22.864-22.864v-9.136h104.168c26.945-0.004,50.066-19.197,55.032-45.68l16.664-88.8     C480.319,159.17,479.693,156.736,478.16,154.893z M408,320.005c8.837,0,16,7.163,16,16s-7.163,16-16,16s-16-7.163-16-16     S399.163,320.005,408,320.005z M16,40.005c0-13.255,10.745-24,24-24h224c13.255,0,24,10.745,24,24v8H16V40.005z M288,440.005     c0,13.255-10.745,24-24,24H40c-13.255,0-24-10.745-24-24v-8h272V440.005z M288,416.005H16v-352h272v88h-39.2l-5.712-33.352     c-0.659-3.842-3.99-6.649-7.888-6.648h-35.352c-4.418,0-8,3.582-8,8s3.582,8,8,8h28.608l27.656,161.352     c0.659,3.842,3.99,6.649,7.888,6.648h24v9.136c-17.046,4.338-27.347,21.674-23.008,38.719     c2.877,11.304,11.704,20.131,23.008,23.008V416.005z M312,336.005c0,8.837-7.163,16-16,16s-16-7.163-16-16s7.163-16,16-16     S312,327.168,312,336.005z M447.48,247.373c-3.546,18.919-20.063,32.63-39.312,32.632H270.744l-19.2-112H462.4L447.48,247.373z" data-original="#000000" class="active-path" data-old_color="#000000" fill="#E91414"/>
			<path d="M168,200.005c0,4.418,3.582,8,8,8s8-3.582,8-8c-0.043-23.397-16.934-43.361-40-47.28v-16.72h-16v16.72     c-26.112,4.392-43.72,29.12-39.328,55.232c3.389,20.151,19.177,35.939,39.328,39.328v63.584     c-14.085-3.637-23.945-16.317-24-30.864c0-4.418-3.582-8-8-8s-8,3.582-8,8c0.043,23.397,16.934,43.361,40,47.28v16.72h16v-16.72     c26.112-4.392,43.72-29.12,39.328-55.232c-3.389-20.151-19.177-35.939-39.328-39.328v-63.584     C158.086,172.777,167.945,185.457,168,200.005z M128,230.869c-14.085-3.637-23.945-16.317-24-30.864     c0.055-14.547,9.915-27.227,24-30.864V230.869z M168,280.005c-0.055,14.547-9.914,27.227-24,30.864v-61.728     C158.086,252.777,167.945,265.457,168,280.005z" data-original="#000000" class="active-path" data-old_color="#000000" fill="#E91414"/>
			<path d="M88,384.005H48v-40c0-4.418-3.582-8-8-8s-8,3.582-8,8v48c0,4.418,3.582,8,8,8h48c4.418,0,8-3.582,8-8     S92.418,384.005,88,384.005z" data-original="#000000" class="active-path" data-old_color="#000000" fill="#E91414"/>
		</g>
	</g>
</g></g> </svg>
