<svg id="Layer_5" enable-background="new 0 0 64 64" height="512" viewBox="0 0 64 64" width="512" xmlns="http://www.w3.org/2000/svg"><g><path d="m17 26c-.692 0-1.359-.097-2-.263v.615c0 .253-.024.5-.069.741l2.069 3.104 2.091-3.137c-.055-.265-.091-.536-.091-.815v-.508c-.641.166-1.308.263-2 .263z"/><path d="m18.929 42.657-1.506-9.038-.423-.338-.423.338-1.506 9.038 1.929 1.929z"/><path d="m20.228 29.109c-.02-.02-.04-.039-.06-.058l-1.827 2.742 2.398 1.919z"/><path d="m25 15v3c0 .339-.028.672-.069 1h.069c1.103 0 2-.897 2-2s-.897-2-2-2z"/><path d="m9 13h.016c.084-1.663 1.033-3.142 2.536-3.895l.448-.223.447.224c2.478 1.239 5.253 1.894 8.025 1.894h4.528v2c.596 0 1.157.14 1.665.374.217-.559.335-1.156.335-1.756 0-1.756-.934-3.335-2.443-4.2-.513 1.075-1.44 1.931-2.625 2.325l-.616.206-.632-1.898.616-.205c1.016-.339 1.7-1.286 1.7-2.359 0-1.371-1.116-2.487-2.487-2.487h-6.513c-2.757 0-5 2.243-5 5v.414l-.769.769c-.794.795-1.231 1.85-1.231 2.972 0 .438.071.872.206 1.289.542-.274 1.146-.444 1.794-.444z"/><path d="m46 21v.089c1.066.22 1.991.87 2.556 1.822.831-.242 1.444-1.003 1.444-1.911z"/><path d="m44.236 15.897c1.037.663 1.675 1.812 1.749 3.103h4.028c.065-1.28.71-2.434 1.768-3.112 2.015-1.297 3.219-3.498 3.219-5.888 0-1.991-.853-3.895-2.339-5.223-1.507-1.346-3.455-1.967-5.481-1.73-3.146.355-5.72 2.891-6.12 6.027-.349 2.735.868 5.349 3.176 6.823zm.471-5.604 1.293 1.293 5.293-5.293 1.414 1.414-6.707 6.707-2.707-2.707z"/><path d="m47.382 25-.473-.946c-.325-.651-.978-1.054-1.705-1.054-.501 0-.993.204-1.348.559l-2.442 2.441 3 3h4.586c.551 0 1-.448 1-1v-2c0-.552-.449-1-1-1z"/><path d="m13.759 29.223-.499 4.488 2.398-1.919-1.785-2.678c-.035.038-.076.072-.114.109z"/><path d="m35.043 37.542 7.543-7.542-2.586-2.586-7.178 7.178-.927 1.855-1.789-.895.666-1.333c-.949-.853-3.048-2.592-5.088-3.272-.992-.331-2.094-.582-3.275-.748-.017-.002-.031-.009-.048-.011l.9 8.1-3.499-2.799 1.309 7.853-4.071 4.072-4.071-4.071 1.309-7.853-3.499 2.799.889-7.998c-.045.007-.087.023-.132.029l-2.829.354c-1.42.178-2.76.833-3.772 1.846-1.204 1.204-1.895 2.871-1.895 4.574v8.906h4v-8.586c0-.645-.251-1.251-.708-1.707l1.415-1.414c.834.834 1.293 1.942 1.293 3.121v9.172l1.14 1.14c.353.353.596.798.733 1.274h14.127v-11.586c0-1.179.459-2.287 1.292-3.121l1.415 1.414c-.413.413-.647.951-.69 1.527l2.124 1.158c.729.398 1.553.608 2.383.608 1.33 0 2.58-.518 3.519-1.458z"/><path d="m9.376 52.43-.376.188v.382 8h7v-2.838c0-1.46-.931-2.751-2.316-3.214l.633-1.896c1.112.371 2.037 1.078 2.684 1.985.646-.907 1.572-1.615 2.684-1.985l.633 1.896c-1.387.463-2.318 1.754-2.318 3.214v2.838h7v-10h-14.253c-.271.609-.747 1.118-1.371 1.43z"/><path d="m23 18v-5h-2.528c-2.896 0-5.793-.643-8.418-1.864-.659.489-1.054 1.259-1.054 2.1v4.764c0 3.309 2.691 6 6 6s6-2.691 6-6z"/><path d="m8.726 49.14-1.14-1.14h-4.586v5c0 .552.449 1 1 1h2c.551 0 1-.448 1-1v-1-.618l1.482-.741c.319-.16.518-.481.518-.838 0-.247-.1-.489-.274-.663z"/><path d="m9 19h.069c-.041-.328-.069-.661-.069-1v-3c-1.103 0-2 .897-2 2s.897 2 2 2z"/><path d="m46 51v-1.586c0-1.331-1.083-2.414-2.414-2.414-.635 0-1.257.258-1.707.707l-3.293 3.293h-4.586c-1.654 0-3 1.346-3 3v4c0 1.654 1.346 3 3 3h12c1.654 0 3-1.346 3-3v-4c0-1.654-1.346-3-3-3zm-1 6h-10v-2h10z"/><path d="m60 33h-12c-1.654 0-3 1.346-3 3v4c0 1.654 1.346 3 3 3v1.586c0 1.331 1.083 2.414 2.414 2.414.635 0 1.257-.258 1.707-.707l3.293-3.293h4.586c1.654 0 3-1.346 3-3v-4c0-1.654-1.346-3-3-3zm-1 6h-10v-2h10z"/></g></svg>