<svg id="Capa_1" enable-background="new 0 0 512 512" height="512" viewBox="0 0 512 512" width="512" xmlns="http://www.w3.org/2000/svg"><g><g><path clip-rule="evenodd" d="m420.451 149.262c11.389 0 20.617 9.202 20.617 20.596 0 11.364-9.228 20.596-20.617 20.596-11.36 0-20.587-9.232-20.587-20.596 0-11.394 9.228-20.596 20.587-20.596zm-128.021 0c11.36 0 20.587 9.202 20.587 20.596 0 11.364-9.228 20.596-20.587 20.596-11.389 0-20.617-9.232-20.617-20.596 0-11.394 9.228-20.596 20.617-20.596zm-87.373 229.125 151.763 17.003 151.004-17.003-27.1-281.623c-.263-2.892-2.365-5.259-5.256-5.259h-55.017-128.021-55.017c-2.891 0-4.994 2.366-5.256 5.259l-3.738 38.855-3.417 35.378z" fill="#ffe07d" fill-rule="evenodd"/></g><g><path clip-rule="evenodd" d="m246.086 430.68h261.008c2.103 0 4.088-1.256 4.906-3.038v-6.077l-4.176-43.178h-302.767l-4.526 47.035c-.292 2.892 2.365 5.259 5.256 5.259h40.299z" fill="#ffc269" fill-rule="evenodd"/></g><g><path clip-rule="evenodd" d="m512 421.566-4.176-43.178h-33.933l.38 3.769 3.796 39.41v6.077c-.818 1.782-2.803 3.038-4.906 3.038h33.933c2.103 0 4.088-1.256 4.906-3.038z" fill="#ffa95f" fill-rule="evenodd"/></g><g><path clip-rule="evenodd" d="m152.055 170.997 36.386 13.322 36.561-13.322 14.075-17.908-10.659-17.47c-12.44-9.29-27.859-14.812-44.592-14.812-18.923 0-36.211 7.099-49.352 18.755l-.818 22.933z" fill="#ff8086" fill-rule="evenodd"/></g><g><path clip-rule="evenodd" d="m14.484 170.997 76.86 16.769 60.711-16.769-17.58-31.434-16.966-30.353c-1.489-2.658-4.76-3.447-7.301-1.782z" fill="#ffe07d" fill-rule="evenodd"/></g><g><path clip-rule="evenodd" d="m5.023 491.825h123.437 112.603c2.745 0 5.023-2.25 5.023-5.025v-56.12l-21.084-259.683h-72.947-137.571-9.461c-2.774 0-5.023 2.279-5.023 5.054v310.75c0 2.775 2.249 5.024 5.023 5.024z" fill="#eceaec" fill-rule="evenodd"/></g><g><path clip-rule="evenodd" d="m420.451 149.262c11.389 0 20.617 9.202 20.617 20.596 0 11.364-9.228 20.596-20.617 20.596-11.36 0-20.587-9.232-20.587-20.596 0-11.394 9.228-20.596 20.587-20.596zm-128.021 0c11.36 0 20.587 9.202 20.587 20.596 0 11.364-9.228 20.596-20.587 20.596-11.389 0-20.617-9.232-20.617-20.596 0-11.394 9.228-20.596 20.617-20.596zm-87.373 229.125 151.763 17.003 151.004-17.003-27.1-281.623c-.263-2.892-2.365-5.259-5.256-5.259h-55.017-128.021-55.017c-2.891 0-4.994 2.366-5.256 5.259l-3.738 38.855-3.417 35.378z" fill="#ffe07d" fill-rule="evenodd"/></g><g><path clip-rule="evenodd" d="m246.086 430.68h261.008c2.103 0 4.088-1.256 4.906-3.038v-6.077l-4.176-43.178h-302.767l-4.526 47.035c-.292 2.892 2.365 5.259 5.256 5.259h40.299z" fill="#ffc269" fill-rule="evenodd"/></g><g><path clip-rule="evenodd" d="m225.002 170.997h-32.969l-1.197 12.474-27.012 280.689c-.35 3.564 2.92 6.515 6.512 6.515h49.79 25.961v-39.995h-40.299c-2.891 0-5.548-2.366-5.256-5.259 8.146-84.807 16.323-169.616 24.47-254.424z" fill="#dad8db" fill-rule="evenodd"/></g><g><path clip-rule="evenodd" d="m507.824 378.387-27.1-281.623c-.263-2.892-2.365-5.259-5.256-5.259h-33.933c2.891 0 4.994 2.366 5.256 5.259l27.1 281.623z" fill="#ffc269" fill-rule="evenodd"/></g><g><path clip-rule="evenodd" d="m152.055 170.997-17.58-31.434-16.966-30.353c-1.489-2.658-4.76-3.447-7.301-1.782l-20.033 13.322c5.315 10.926 8.293 23.254 8.293 36.313 0 4.733-.409 9.407-1.168 13.935h54.755z" fill="#ffc269" fill-rule="evenodd"/></g><g><path clip-rule="evenodd" d="m225.002 170.997 3.417-35.378c-12.206-9.115-27.246-14.578-43.599-14.782 5.344 10.926 8.323 23.313 8.323 36.371 0 4.703-.38 9.319-1.11 13.789z" fill="#f76672" fill-rule="evenodd"/></g><g><path d="m123.029 314.048c-35.389 0-64.18-28.801-64.18-64.203v-29.36c0-4.27 3.462-7.732 7.732-7.732s7.732 3.462 7.732 7.732v29.36c0 26.875 21.854 48.739 48.716 48.739 26.878 0 48.745-21.864 48.745-48.739v-29.36c0-4.27 3.462-7.732 7.732-7.732s7.732 3.462 7.732 7.732v29.36c-.001 35.402-28.805 64.203-64.209 64.203z" fill="#6f6571"/></g><path d="m428.183 142.609v-50.665c0-39.574-32.184-71.769-71.743-71.769s-71.742 32.195-71.742 71.769v50.666c-11.884 3.372-20.617 14.307-20.617 27.248 0 15.62 12.717 28.328 28.349 28.328 15.615 0 28.319-12.708 28.319-28.328 0-12.938-8.72-23.871-20.587-27.246v-50.668c0-31.047 25.247-56.305 56.278-56.305 31.033 0 56.279 25.258 56.279 56.305v50.668c-11.867 3.375-20.587 14.307-20.587 27.246 0 15.62 12.704 28.328 28.319 28.328 15.631 0 28.349-12.708 28.349-28.328 0-12.942-8.733-23.876-20.617-27.249zm-122.898 27.248c0 7.093-5.767 12.864-12.855 12.864-7.105 0-12.885-5.771-12.885-12.864s5.78-12.864 12.885-12.864c7.089 0 12.855 5.771 12.855 12.864zm115.167 12.864c-7.089 0-12.855-5.771-12.855-12.864s5.767-12.864 12.855-12.864c7.105 0 12.885 5.771 12.885 12.864s-5.781 12.864-12.885 12.864z" fill="#6f6571"/></g></svg>