<?xml version="1.0"?>
<svg xmlns="http://www.w3.org/2000/svg" viewBox="0 0 64 64" width="512px" height="512px"><g><g id="Mail-3" data-name="Mail"><path d="M56,53.535l-21.754-14.5L30.44,40.9a1,1,0,0,1-.9-.011l-3.682-1.918L4,53.594V55a3,3,0,0,0,3,3H53a3,3,0,0,0,3-3ZM24,50H44v2H24Zm-6,6H14V54h4Zm0-6h4v2H18Zm30,6H20V54H48Z" data-original="#000000" class="active-path" data-old_color="#000000" fill="#6F7D86"/><polygon points="4 51.188 23.834 37.916 4 27.588 4 51.188" data-original="#000000" class="active-path" data-old_color="#000000" fill="#6F7D86"/><path d="M4,25.333,30.014,38.879,36.5,35.7A16.993,16.993,0,0,1,28.051,22H7a3,3,0,0,0-3,3Z" data-original="#000000" class="active-path" data-old_color="#000000" fill="#6F7D86"/><path d="M56,33.938a16.877,16.877,0,0,1-17.215,2.869l-2.461,1.207L56,51.131Z" data-original="#000000" class="active-path" data-old_color="#000000" fill="#6F7D86"/><path d="M45,6A15,15,0,1,0,60,21,15.017,15.017,0,0,0,45,6ZM43.707,27.707a1,1,0,0,1-1.414,0L36.636,22.05l1.414-1.414L43,25.586,53.606,14.979l1.415,1.415Z" data-original="#000000" class="active-path" data-old_color="#000000" fill="#6F7D86"/></g></g> </svg>
