<?xml version="1.0"?>
<svg xmlns="http://www.w3.org/2000/svg" viewBox="0 0 64 64" width="512" height="512"><g id="Administrator-Smartphone-Cloud-Office-Internet"><rect x="4" y="54" width="56" height="2"/><path d="M24,52H40a1,1,0,0,0,1-1V50H23v1A1,1,0,0,0,24,52Z"/><circle cx="32" cy="43" r="1"/><rect x="7" y="58" width="50" height="2"/><path d="M42.816,52H45V44.87a5.027,5.027,0,0,0-.836-2.771L43,49.083V51A2.966,2.966,0,0,1,42.816,52Z"/><path d="M40,25v2a1,1,0,0,0,0-2Z"/><path d="M42.625,39.164A1,1,0,0,0,41.639,38H22.361a1,1,0,0,0-.986,1.164L22.847,48H41.153ZM32,46a3,3,0,1,1,3-3A3,3,0,0,1,32,46Z"/><path d="M37,15H22.618L23.9,17.553a1,1,0,0,1,0,.894L23.217,19.8l2.2,2.2h3.919a7.04,7.04,0,0,0,4.2-1.4L35.4,19.2A1,1,0,0,1,36,19a1,1,0,0,1,.949.684l.544,1.632a1,1,0,0,0,.948.684h.145L40,20.586V18A3,3,0,0,0,37,15Z"/><path d="M24,25a1,1,0,0,0,0,2Z"/><path d="M19,44.87V52h2.184A2.966,2.966,0,0,1,21,51V49.083L19.836,42.1A5.027,5.027,0,0,0,19,44.87Z"/><path d="M35.6,21.949l-.1-.317-.757.568a9.052,9.052,0,0,1-5.4,1.8H26v3a4.614,4.614,0,0,0,.031.58,5.991,5.991,0,0,0,1.726,3.663,5.833,5.833,0,0,0,1.665,1.17,6,6,0,0,0,8.542-4.8A4.6,4.6,0,0,0,38,27V23.965A3,3,0,0,1,35.6,21.949ZM30,27H28V25h2Zm6,0H34V25h2Z"/><path d="M30,34.738V36h4V34.738a7.765,7.765,0,0,1-4,0Z"/><path d="M58,10H56.445a1,1,0,0,1-.864-1.5A2.946,2.946,0,0,0,56,7a2.995,2.995,0,0,0-5.946-.514,1,1,0,0,1-1.522.673A1.017,1.017,0,0,0,47,8a.983.983,0,0,0,.141.5,1,1,0,0,1-.864,1.5H46a2,2,0,0,0,0,4H58a2,2,0,0,0,0-4Z"/><path d="M16,7a3,3,0,0,0-3-3H7A3,3,0,0,0,4,7V19a3,3,0,0,0,3,3h6a3,3,0,0,0,3-3ZM8,6h4V8H8Zm3,14H9V18h2Zm2-4H7V14h6Zm0-4H7V10h6Z"/><rect x="54" y="37" width="2" height="2"/><path d="M58.536,34.464a5.008,5.008,0,0,0-7.072,0l1.414,1.414a3.006,3.006,0,0,1,4.244,0Z"/><path d="M61.364,31.636a9,9,0,0,0-12.728,0L50.05,33.05a7,7,0,0,1,9.9,0Z"/><path d="M49,44v2h3a1,1,0,0,0,.707-.293l3-3-1.414-1.414L51.586,44Z"/><path d="M9,26v4a1,1,0,0,0,.293.707l7,7,1.414-1.414L11,29.586V26Z"/><path d="M53,23V18H51v4H45v2h7A1,1,0,0,0,53,23Z"/></g></svg>
