<?xml version="1.0"?>
<svg xmlns="http://www.w3.org/2000/svg" height="512px" viewBox="0 0 512 512" width="512px"><g><g id="Solid"><path d="m72 168h80v48h-80z" data-original="#000000" class="active-path" data-old_color="#000000" fill="#E98E39"/><path d="m106.343 322.343a8 8 0 0 1 11.314 0l13.656 13.657h20.687v-40h-80v40h20.687z" data-original="#000000" class="active-path" data-old_color="#000000" fill="#E98E39"/><path d="m280 368v40h64v-48h-65.013a31.94 31.94 0 0 1 1.013 8z" data-original="#000000" class="active-path" data-old_color="#000000" fill="#E98E39"/><path d="m248 352h-120a8 8 0 0 1 -5.657-2.343l-10.343-10.344-10.343 10.344a8 8 0 0 1 -5.657 2.343h-40a16.019 16.019 0 0 0 -16 16v88a16.019 16.019 0 0 0 16 16h192a16.019 16.019 0 0 0 16-16v-88a16.019 16.019 0 0 0 -16-16zm-168 24h16v16h-16zm128 80h-144v-16h144zm32-32h-176v-16h176zm0-32h-128v-16h128z" data-original="#000000" class="active-path" data-old_color="#000000" fill="#E98E39"/><path d="m72 104h80v48h-80z" data-original="#000000" class="active-path" data-old_color="#000000" fill="#E98E39"/><path d="m264 340.305a32.15 32.15 0 0 1 5.132 3.695h74.868v-48h-80z" data-original="#000000" class="active-path" data-old_color="#000000" fill="#E98E39"/><path d="m168 168h80v48h-80z" data-original="#000000" class="active-path" data-old_color="#000000" fill="#E98E39"/><path d="m168 104h80v48h-80z" data-original="#000000" class="active-path" data-old_color="#000000" fill="#E98E39"/><path d="m152 40h-64a16.019 16.019 0 0 0 -16 16v32h80zm-48 32h-16v-16h16zm32 0h-16v-16h16z" data-original="#000000" class="active-path" data-old_color="#000000" fill="#E98E39"/><path d="m248 40h-80v48h80zm-16 32h-48v-16h48z" data-original="#000000" class="active-path" data-old_color="#000000" fill="#E98E39"/><path d="m168 232h80v48h-80z" data-original="#000000" class="active-path" data-old_color="#000000" fill="#E98E39"/><path d="m168 296h80v40h-80z" data-original="#000000" class="active-path" data-old_color="#000000" fill="#E98E39"/><path d="m72 232h80v48h-80z" data-original="#000000" class="active-path" data-old_color="#000000" fill="#E98E39"/><path d="m360 232h80v48h-80z" data-original="#000000" class="active-path" data-old_color="#000000" fill="#E98E39"/><path d="m360 456a16.019 16.019 0 0 0 16 16h48a16.019 16.019 0 0 0 16-16v-32h-80z" data-original="#000000" class="active-path" data-old_color="#000000" fill="#E98E39"/><path d="m360 168h80v48h-80z" data-original="#000000" class="active-path" data-old_color="#000000" fill="#E98E39"/><path d="m360 360h80v48h-80z" data-original="#000000" class="active-path" data-old_color="#000000" fill="#E98E39"/><path d="m360 296h80v48h-80z" data-original="#000000" class="active-path" data-old_color="#000000" fill="#E98E39"/><path d="m264 88h80v-48h-80zm16-32h48v16h-48z" data-original="#000000" class="active-path" data-old_color="#000000" fill="#E98E39"/><path d="m360 104h80v48h-80z" data-original="#000000" class="active-path" data-old_color="#000000" fill="#E98E39"/><path d="m264 232h80v48h-80z" data-original="#000000" class="active-path" data-old_color="#000000" fill="#E98E39"/><path d="m264 168h80v48h-80z" data-original="#000000" class="active-path" data-old_color="#000000" fill="#E98E39"/><path d="m264 104h80v48h-80z" data-original="#000000" class="active-path" data-old_color="#000000" fill="#E98E39"/><path d="m424 40h-64v48h80v-32a16.019 16.019 0 0 0 -16-16zm0 32h-48v-16h48z" data-original="#000000" class="active-path" data-old_color="#000000" fill="#E98E39"/></g></g> </svg>
